<mxfile host="65bd71144e">
    <diagram id="mPACFKmxmwFMi_FljmRC" name="Page-1">
        <mxGraphModel dx="839" dy="1809" grid="1" gridSize="10" guides="1" tooltips="1" connect="1" arrows="1" fold="1" page="1" pageScale="1" pageWidth="850" pageHeight="1100" math="0" shadow="0">
            <root>
                <mxCell id="0"/>
                <mxCell id="1" parent="0"/>
                <mxCell id="15" style="edgeStyle=orthogonalEdgeStyle;rounded=1;orthogonalLoop=1;jettySize=auto;html=1;exitX=1;exitY=0.5;exitDx=0;exitDy=0;entryX=0;entryY=0.5;entryDx=0;entryDy=0;fontSize=20;endArrow=block;endFill=1;endSize=20;" edge="1" parent="1" source="2" target="10">
                    <mxGeometry relative="1" as="geometry"/>
                </mxCell>
                <mxCell id="2" value="Subject" style="rounded=1;whiteSpace=wrap;html=1;arcSize=5;verticalAlign=top;fontSize=20;fillColor=#60a917;strokeColor=#2D7600;fontColor=#ffffff;shadow=1;" vertex="1" parent="1">
                    <mxGeometry x="20" y="20" width="220" height="290" as="geometry"/>
                </mxCell>
                <mxCell id="6" value="notifyObservers()" style="rounded=1;whiteSpace=wrap;html=1;arcSize=26;fontSize=17;fillColor=#1ba1e2;strokeColor=#006EAF;fontColor=#ffffff;shadow=1;" vertex="1" parent="1">
                    <mxGeometry x="30" y="250" width="200" height="50" as="geometry"/>
                </mxCell>
                <mxCell id="7" value="removeObserver(o)" style="rounded=1;whiteSpace=wrap;html=1;arcSize=26;fontSize=17;fillColor=#1ba1e2;strokeColor=#006EAF;fontColor=#ffffff;shadow=1;" vertex="1" parent="1">
                    <mxGeometry x="30" y="190" width="200" height="50" as="geometry"/>
                </mxCell>
                <mxCell id="8" value="addObserver(o)" style="rounded=1;whiteSpace=wrap;html=1;arcSize=26;fontSize=17;fillColor=#1ba1e2;strokeColor=#006EAF;fontColor=#ffffff;shadow=1;" vertex="1" parent="1">
                    <mxGeometry x="30" y="130" width="200" height="50" as="geometry"/>
                </mxCell>
                <mxCell id="9" value="observers : List" style="rounded=1;whiteSpace=wrap;html=1;arcSize=26;fontSize=17;fillColor=#a20025;strokeColor=#6F0000;fontColor=#ffffff;shadow=1;" vertex="1" parent="1">
                    <mxGeometry x="30" y="60" width="200" height="50" as="geometry"/>
                </mxCell>
                <mxCell id="10" value="Observer" style="rounded=1;whiteSpace=wrap;html=1;arcSize=5;verticalAlign=top;fontSize=20;fillColor=#60a917;strokeColor=#2D7600;fontColor=#ffffff;shadow=1;" vertex="1" parent="1">
                    <mxGeometry x="330" y="20" width="220" height="100" as="geometry"/>
                </mxCell>
                <mxCell id="13" value="update(subject)" style="rounded=1;whiteSpace=wrap;html=1;arcSize=26;fontSize=17;fillColor=#1ba1e2;strokeColor=#006EAF;fontColor=#ffffff;shadow=1;" vertex="1" parent="1">
                    <mxGeometry x="340" y="60" width="200" height="50" as="geometry"/>
                </mxCell>
            </root>
        </mxGraphModel>
    </diagram>
</mxfile>